<svg xmlns="http://www.w3.org/2000/svg" width="896" height="756" viewBox="0 0 896 756">
  <defs>
    <style>
      .cls-1, .cls-5 {
        fill: none;
      }

      .cls-2, .cls-3 {
        fill: #000286;
      }

      .cls-2, .cls-4 {
        fill-rule: evenodd;
      }

      .cls-4 {
        fill: #00964d;
      }

      .cls-5 {
        stroke: #00964d;
        stroke-linecap: round;
        stroke-width: 25px;
      }
    </style>
  </defs>
  <g id="Dữ_liệu_nền" data-name="Dữ liệu nền" transform="translate(0 0)">
    <g id="Group_2848" data-name="Group 2848">
      <rect id="Rectangle_1281" data-name="Rectangle 1281" class="cls-1" width="896" height="756" transform="translate(0 0)"/>
    </g>
    <g id="Group_2970" data-name="Group 2970" transform="translate(141.653 91.063)">
      <path id="Path_7067" data-name="Path 7067" class="cls-2" d="M26.982,128.162V26.981H589.208V128.162ZM6.745,155.144A6.745,6.745,0,0,1,0,148.4V6.745A6.745,6.745,0,0,1,6.745,0h602.7a6.745,6.745,0,0,1,6.745,6.745V148.4a6.745,6.745,0,0,1-6.745,6.745Z"/>
      <path id="Path_7068" data-name="Path 7068" class="cls-2" d="M26.982,154.162V52.982H589.208V154.162ZM6.745,181.144A6.745,6.745,0,0,1,0,174.4V32.745A6.745,6.745,0,0,1,6.745,26h602.7a6.745,6.745,0,0,1,6.745,6.745V174.4a6.745,6.745,0,0,1-6.745,6.745Z" transform="translate(0 149.38)"/>
      <path id="Path_7069" data-name="Path 7069" class="cls-2" d="M16.745,37.173A6.745,6.745,0,0,1,10,30.428V16.745A6.745,6.745,0,0,1,16.745,10H57.218a6.745,6.745,0,0,1,6.745,6.746V30.428a6.745,6.745,0,0,1-6.745,6.745Z" transform="translate(57.454 57.454)"/>
      <path id="Path_7070" data-name="Path 7070" class="cls-2" d="M16.745,63.173A6.745,6.745,0,0,1,10,56.428V42.745A6.745,6.745,0,0,1,16.745,36H57.218a6.745,6.745,0,0,1,6.745,6.745V56.428a6.745,6.745,0,0,1-6.745,6.745Z" transform="translate(57.454 206.834)"/>
      <path id="Path_7071" data-name="Path 7071" class="cls-2" d="M27.745,37.173A6.745,6.745,0,0,1,21,30.428V16.745A6.745,6.745,0,0,1,27.745,10H68.218a6.745,6.745,0,0,1,6.745,6.746V30.428a6.745,6.745,0,0,1-6.745,6.745Z" transform="translate(120.653 57.454)"/>
      <path id="Path_7072" data-name="Path 7072" class="cls-2" d="M27.745,63.173A6.745,6.745,0,0,1,21,56.428V42.745A6.745,6.745,0,0,1,27.745,36H68.218a6.745,6.745,0,0,1,6.745,6.745V56.428a6.745,6.745,0,0,1-6.745,6.745Z" transform="translate(120.653 206.834)"/>
      <path id="Path_7073" data-name="Path 7073" class="cls-2" d="M38.745,37.173A6.745,6.745,0,0,1,32,30.428V16.745A6.745,6.745,0,0,1,38.745,10H79.218a6.745,6.745,0,0,1,6.745,6.746V30.428a6.745,6.745,0,0,1-6.745,6.745Z" transform="translate(183.852 57.454)"/>
      <path id="Path_7074" data-name="Path 7074" class="cls-2" d="M38.745,63.173A6.745,6.745,0,0,1,32,56.428V42.745A6.745,6.745,0,0,1,38.745,36H79.218a6.745,6.745,0,0,1,6.745,6.745V56.428a6.745,6.745,0,0,1-6.745,6.745Z" transform="translate(183.852 206.834)"/>
      <circle id="Ellipse_181" data-name="Ellipse 181" class="cls-3" cx="23.609" cy="23.609" r="23.609" transform="translate(424.959 53.963)"/>
      <circle id="Ellipse_182" data-name="Ellipse 182" class="cls-3" cx="23.609" cy="23.609" r="23.609" transform="translate(424.959 229.343)"/>
      <circle id="Ellipse_183" data-name="Ellipse 183" class="cls-3" cx="23.609" cy="23.609" r="23.609" transform="translate(499.158 53.963)"/>
      <circle id="Ellipse_184" data-name="Ellipse 184" class="cls-3" cx="23.609" cy="23.609" r="23.609" transform="translate(499.158 229.343)"/>
      <path id="Path_7075" data-name="Path 7075" class="cls-4" d="M6.745,52A6.745,6.745,0,0,0,0,58.745V200.4a6.745,6.745,0,0,0,6.745,6.745H610.456A6.745,6.745,0,0,0,617.2,200.4V58.745A6.745,6.745,0,0,0,610.456,52Zm60.708,87.881a6.745,6.745,0,0,0,6.745,6.745h40.472a6.745,6.745,0,0,0,6.745-6.745V126.2a6.745,6.745,0,0,0-6.745-6.745H74.2a6.745,6.745,0,0,0-6.745,6.745Zm80.945,6.745a6.745,6.745,0,0,1-6.745-6.745V126.2a6.745,6.745,0,0,1,6.745-6.745H188.87a6.745,6.745,0,0,1,6.745,6.745v13.682a6.745,6.745,0,0,1-6.745,6.745Zm67.454-6.745a6.745,6.745,0,0,0,6.745,6.745H263.07a6.745,6.745,0,0,0,6.745-6.745V126.2a6.745,6.745,0,0,0-6.745-6.745H222.6a6.745,6.745,0,0,0-6.745,6.745Zm256.324-10.31a23.609,23.609,0,1,1-23.609-23.609A23.609,23.609,0,0,1,472.176,129.572Zm50.59,23.609a23.609,23.609,0,1,0-23.609-23.609A23.609,23.609,0,0,0,522.767,153.181Z" transform="translate(0 298.759)"/>
      <path id="Path_7076" data-name="Path 7076" class="cls-5" d="M310.287,75v53.114m0,0H0m310.287,0H617.2" transform="translate(0 448.615)"/>
    </g>
  </g>
</svg>
